<svg width="62" height="46" viewBox="0 0 62 46" fill="none" xmlns="http://www.w3.org/2000/svg">
<path d="M60.8254 15.1896C61.2977 14.8182 62 15.1656 62 15.7526V40.25C62 43.4245 59.3965 46 56.1875 46H5.8125C2.60352 46 0 43.4245 0 40.25V15.7646C0 15.1656 0.690234 14.8302 1.17461 15.2016C3.88711 17.2859 7.48359 19.9333 19.8352 28.8099C22.3902 30.6547 26.7012 34.5359 31 34.512C35.323 34.5479 39.7188 30.5828 42.177 28.8099C54.5285 19.9333 58.1129 17.274 60.8254 15.1896ZM31 30.6667C33.8094 30.7146 37.8539 27.1688 39.8883 25.7073C55.9574 14.1714 57.1805 13.1651 60.8859 10.2901C61.5883 9.75104 62 8.9125 62 8.02604V5.75C62 2.57552 59.3965 0 56.1875 0H5.8125C2.60352 0 0 2.57552 0 5.75V8.02604C0 8.9125 0.411719 9.73906 1.11406 10.2901C4.81953 13.1531 6.04258 14.1714 22.1117 25.7073C24.1461 27.1688 28.1906 30.7146 31 30.6667Z" fill="white"/>
</svg>
