<svg width="77" height="68" viewBox="0 0 77 68" fill="none" xmlns="http://www.w3.org/2000/svg">
<path d="M38.5 0C29.1972 0 21.6562 7.49195 21.6562 16.7344C21.6562 24.2064 32.6648 37.825 36.8825 42.7683C37.7367 43.7697 39.2647 43.7697 40.1175 42.7683C44.3352 37.825 55.3438 24.2064 55.3438 16.7344C55.3438 7.49195 47.8028 0 38.5 0ZM38.5 22.3125C35.3986 22.3125 32.8854 19.8156 32.8854 16.7344C32.8854 13.6531 35.3986 11.1562 38.5 11.1562C41.6014 11.1562 44.1146 13.6531 44.1146 16.7344C44.1146 19.8156 41.6014 22.3125 38.5 22.3125ZM2.68965 28.6809C1.89583 28.9963 1.21533 29.5408 0.735924 30.2441C0.256518 30.9474 0.000190122 31.7773 0 32.6267L0 65.8723C0 67.3758 1.52797 68.4037 2.93295 67.8459L21.3889 59.5V28.5441C20.2072 26.4217 19.2406 24.3552 18.5482 22.3789L2.68965 28.6809ZM38.5 47.7687C36.6191 47.7687 34.8398 46.9479 33.6193 45.5162C30.9912 42.4349 28.1959 38.926 25.6667 35.3268V59.4987L51.3333 67.9987V35.3281C48.8041 38.926 46.0102 42.4362 43.3807 45.5175C42.1602 46.9479 40.3809 47.7687 38.5 47.7687ZM74.067 21.4041L55.6111 29.75V68L74.3103 60.5691C75.1043 60.2538 75.7849 59.7094 76.2643 59.006C76.7437 58.3027 77 57.4727 77 56.6233V23.3777C77 21.8742 75.472 20.8463 74.067 21.4041Z" fill="white"/>
</svg>
