<svg width="60" height="60" viewBox="0 0 60 60" fill="none" xmlns="http://www.w3.org/2000/svg">
<path d="M58.2879 42.3985L45.1629 36.7735C44.6022 36.5345 43.9791 36.4842 43.3873 36.63C42.7955 36.7758 42.2671 37.1099 41.8816 37.5821L36.0691 44.6836C26.947 40.3826 19.6057 33.0413 15.3047 23.9192L22.4062 18.1067C22.8793 17.7219 23.2141 17.1935 23.36 16.6015C23.5059 16.0094 23.455 15.3859 23.2148 14.8254L17.5898 1.70043C17.3263 1.09622 16.8602 0.602902 16.2719 0.305542C15.6836 0.00818279 15.01 -0.0745816 14.3672 0.0715204L2.17969 2.88402C1.55996 3.02713 1.00705 3.37607 0.611174 3.87388C0.215303 4.3717 -0.000142759 4.989 7.09712e-08 5.62503C7.09712e-08 35.6836 24.3633 60 54.375 60C55.0112 60.0004 55.6288 59.7851 56.1269 59.3892C56.6249 58.9933 56.974 58.4403 57.1172 57.8203L59.9297 45.6328C60.0748 44.9869 59.9903 44.3106 59.6907 43.7203C59.391 43.13 58.895 42.6625 58.2879 42.3985Z" fill="white"/>
</svg>
